<?xml version="1.0" standalone="no"?>
<!DOCTYPE svg PUBLIC "-//W3C//DTD SVG 20010904//EN"
 "http://www.w3.org/TR/2001/REC-SVG-20010904/DTD/svg10.dtd">
<svg version="1.0" xmlns="http://www.w3.org/2000/svg"
 width="512.000000pt" height="512.000000pt" viewBox="0 0 512.000000 512.000000"
 preserveAspectRatio="xMidYMid meet">
<metadata>
Created by potrace 1.14, written by Peter Selinger 2001-2017
</metadata>
<g transform="translate(0.000000,512.000000) scale(0.100000,-0.100000)"
fill="#000000" stroke="none">
<path d="M0 2725 l0 -2395 26 0 c28 0 59 14 84 39 23 22 82 124 115 202 16 35
34 71 41 79 7 8 20 40 29 70 15 52 35 101 57 143 5 10 18 36 30 58 14 28 17
43 10 52 -6 6 -11 17 -11 22 -3 25 -106 30 -134 6 -11 -9 -25 -9 -49 -2 -18 5
-28 10 -22 10 7 1 11 79 13 248 1 137 4 266 6 288 7 64 16 567 20 1114 3 465
12 828 21 842 3 6 4 57 5 279 0 219 -3 279 -14 298 -5 6 -4 12 1 12 6 0 9 71
8 176 -1 96 1 177 6 180 4 3 5 19 2 37 -13 74 -18 314 -8 385 4 24 2 48 -4 55
-6 7 -10 40 -8 74 2 33 1 75 -2 92 l-4 31 -109 0 -109 0 0 -2395z"/>
<path d="M1946 4251 c-4 -6 -13 -8 -20 -5 -8 3 -17 1 -21 -5 -3 -6 -25 -11
-49 -11 -53 0 -136 -27 -136 -45 0 -13 -50 -60 -85 -81 -14 -8 -18 -22 -17
-60 0 -27 -6 -59 -14 -72 -13 -19 -13 -23 0 -28 8 -3 17 -17 21 -31 3 -15 15
-37 25 -50 24 -30 18 -46 -25 -69 -32 -17 -35 -17 -97 1 -35 10 -82 27 -106
37 -41 17 -45 17 -69 1 -14 -9 -21 -19 -14 -21 6 -2 11 -14 11 -26 0 -14 10
-28 24 -36 14 -7 22 -18 19 -26 -3 -9 2 -14 12 -14 11 0 15 -5 11 -15 -3 -9 0
-15 10 -15 14 0 50 -14 111 -42 28 -14 25 -45 -5 -53 -22 -5 -24 -10 -17 -43
3 -20 8 -76 9 -123 2 -48 6 -91 10 -97 3 -6 1 -12 -6 -14 -8 -3 -5 -16 11 -42
15 -23 20 -41 14 -45 -6 -3 -14 -17 -18 -31 -8 -25 -7 -25 13 -7 12 11 31 17
48 15 15 -2 29 2 31 10 3 8 -5 12 -24 12 -17 0 -23 3 -16 8 7 4 27 8 45 7 28
0 33 -3 30 -22 -5 -34 17 -38 48 -8 32 30 60 28 60 -4 0 -28 18 -36 39 -17 25
22 38 20 57 -10 l17 -25 14 31 c7 18 10 36 8 41 -6 9 28 43 45 45 6 1 14 2 19
3 5 0 13 11 17 24 13 42 110 137 140 137 2 0 4 -20 4 -45 0 -62 16 -59 96 18
36 34 74 66 85 71 10 5 21 17 24 27 4 12 16 19 30 19 29 0 35 16 35 90 0 52 2
58 23 64 13 3 29 17 36 32 11 26 12 26 31 9 12 -11 20 -31 20 -50 0 -40 16
-56 45 -45 31 12 35 -1 35 -110 0 -95 10 -137 36 -147 23 -8 35 16 30 59 -5
32 -2 37 19 42 14 4 25 11 25 16 0 6 5 10 10 10 6 0 10 -9 10 -20 0 -11 6 -20
13 -20 6 0 4 -5 -5 -11 -19 -11 -25 -39 -8 -39 6 0 10 7 10 15 0 24 16 18 17
-7 1 -12 -6 -27 -15 -35 -16 -12 -16 -14 1 -24 21 -12 24 -81 3 -98 -16 -14
-28 -64 -20 -86 4 -9 18 -15 35 -15 22 0 29 -5 29 -20 0 -39 19 -22 63 59 11
19 30 43 43 54 13 10 24 25 24 33 0 28 35 10 38 -19 3 -23 6 -26 18 -16 12 9
14 6 14 -17 0 -44 16 -62 24 -29 4 15 2 33 -3 39 -11 13 -5 26 11 26 6 0 8 -6
6 -12 -9 -26 105 -66 129 -46 7 6 13 7 13 4 0 -4 6 -1 14 6 10 9 11 18 4 31
-13 25 -3 47 20 47 14 0 19 -8 20 -31 0 -17 2 -33 4 -35 7 -6 83 20 110 38 14
10 36 18 47 18 13 0 21 7 22 18 1 9 2 43 4 75 2 45 8 62 23 73 11 7 22 24 25
36 4 13 29 45 57 72 27 27 50 53 50 58 0 5 9 22 21 37 17 23 21 45 23 116 1
73 5 90 20 99 10 6 34 23 53 39 20 15 42 27 49 27 32 0 176 101 162 115 -2 2
-31 0 -64 -6 -32 -5 -90 -10 -129 -10 -80 0 -117 -7 -109 -20 3 -5 -9 -41 -27
-80 -18 -38 -32 -76 -32 -84 0 -20 -13 -19 -21 1 -10 27 -7 73 9 111 11 25 12
40 5 47 -23 23 -305 8 -344 -17 -18 -12 -32 -14 -55 -7 -25 7 -33 5 -40 -8 -9
-16 -10 -16 -16 0 -7 17 -9 16 -37 -4 -29 -20 -31 -21 -44 -3 -9 12 -10 23 -3
36 7 13 6 19 -1 19 -6 0 -8 5 -4 11 3 6 1 15 -7 19 -8 6 -21 -2 -38 -21 -20
-22 -33 -28 -51 -25 -14 2 -28 5 -31 5 -10 1 -17 51 -8 51 5 0 9 5 9 10 0 6
-9 10 -20 10 -11 0 -20 4 -20 10 0 5 -3 9 -7 9 -30 -5 -35 2 -30 37 5 32 4 34
-10 22 -12 -9 -15 -9 -9 0 4 6 2 12 -3 12 -6 0 -11 9 -11 21 0 14 5 19 14 16
10 -4 13 -1 9 9 -6 17 -54 19 -71 2 -9 -9 -12 -9 -12 0 0 7 -7 12 -16 12 -8 0
-12 4 -9 10 3 6 -1 7 -9 4 -21 -8 -20 -20 1 -28 14 -6 14 -8 -3 -21 -10 -8
-14 -15 -7 -15 21 0 9 -54 -15 -66 -12 -6 -19 -14 -15 -17 3 -4 -4 -7 -16 -7
-12 0 -24 -7 -27 -15 -4 -8 -12 -15 -20 -15 -12 0 -12 4 -2 20 7 11 19 20 27
20 12 0 11 3 -2 13 -16 11 -23 47 -26 119 -1 13 -9 16 -33 14 -83 -8 -117 -19
-124 -39 -6 -20 -7 -20 -20 -2 -8 10 -15 17 -17 14 -1 -2 -9 -16 -17 -31 -7
-16 -21 -28 -31 -28 -10 0 -27 -9 -38 -21 -13 -15 -28 -20 -52 -17 -31 3 -34
6 -35 36 0 25 -6 36 -27 47 -29 15 -38 13 -96 -12 -25 -11 -30 -17 -20 -24 11
-7 11 -9 -2 -9 -21 0 -49 32 -49 57 0 24 -25 49 -34 34z m774 -66 c0 -14 5
-25 12 -25 18 0 3 -10 -29 -19 -26 -8 -29 -6 -28 11 1 11 9 24 18 30 10 5 15
13 12 19 -4 5 -1 9 4 9 6 0 11 -11 11 -25z m414 -320 c-4 -8 -8 -15 -10 -15
-2 0 -4 7 -4 15 0 8 4 15 10 15 5 0 7 -7 4 -15z m-781 -42 c-7 -2 -13 -11 -13
-18 0 -21 -19 -28 -36 -14 -14 12 -14 14 2 26 10 7 27 13 38 12 12 0 15 -3 9
-6z m452 -123 c3 -19 0 -39 -5 -45 -6 -7 -12 -44 -13 -83 -2 -47 -9 -75 -20
-86 -20 -20 -27 -20 -27 -1 0 8 5 15 10 15 18 0 0 73 -24 100 -35 39 -57 80
-51 90 4 6 10 8 15 5 4 -3 14 2 21 11 17 20 72 43 82 34 4 -4 10 -22 12 -40z
m-555 30 c0 -5 -5 -10 -11 -10 -5 0 -7 5 -4 10 3 6 8 10 11 10 2 0 4 -4 4 -10z
m-110 -55 c-16 -19 -30 -19 -30 0 0 17 33 38 38 24 2 -5 -2 -16 -8 -24z m-560
-135 c0 -5 -4 -10 -10 -10 -5 0 -10 5 -10 10 0 6 5 10 10 10 6 0 10 -4 10 -10z
m1487 -106 c-3 -3 -12 -4 -19 -1 -8 3 -5 6 6 6 11 1 17 -2 13 -5z m-27 -49 c0
-7 -6 -18 -14 -22 -8 -4 -16 -20 -18 -35 -2 -15 -7 -31 -11 -35 -14 -14 -25
19 -16 49 4 16 5 36 2 44 -4 10 3 14 26 14 20 0 31 -5 31 -15z m-1405 -125 c3
-5 -1 -10 -9 -10 -9 0 -16 5 -16 10 0 6 4 10 9 10 6 0 13 -4 16 -10z"/>
<path d="M2591 4234 c0 -11 3 -14 6 -6 3 7 2 16 -1 19 -3 4 -6 -2 -5 -13z"/>
<path d="M1600 3159 c0 -5 5 -7 10 -4 6 3 10 8 10 11 0 2 -4 4 -10 4 -5 0 -10
-5 -10 -11z"/>
<path d="M1483 3089 c-17 -6 -23 -16 -23 -38 0 -54 41 -49 55 6 8 32 -3 43
-32 32z"/>
<path d="M2631 3074 c0 -11 3 -14 6 -6 3 7 2 16 -1 19 -3 4 -6 -2 -5 -13z"/>
<path d="M840 3009 c-63 -22 -126 -44 -140 -48 -67 -23 -120 -52 -135 -75 -18
-28 -21 -99 -10 -252 9 -121 58 -272 120 -369 40 -61 126 -165 162 -194 171
-139 272 -201 327 -201 12 0 26 -4 32 -9 14 -15 141 -33 221 -32 84 2 153 27
197 72 27 27 56 38 56 22 0 -5 11 -13 25 -19 28 -13 29 -11 41 69 4 31 13 53
25 60 11 7 19 15 19 20 0 17 101 106 114 101 8 -3 17 -1 21 5 3 6 22 11 41 11
28 0 45 -10 94 -57 33 -32 79 -87 102 -121 40 -62 134 -143 228 -197 173 -101
473 -113 750 -31 63 18 141 46 172 60 31 14 60 26 64 26 4 0 62 27 130 60 108
53 123 63 129 89 3 17 1 40 -5 52 -12 21 -11 22 17 16 16 -3 35 -2 42 3 19 11
3 32 -23 28 -20 -2 -66 32 -66 51 0 4 -9 20 -21 35 -16 21 -18 30 -10 40 7 8
10 36 8 68 -5 61 20 122 77 186 18 20 38 47 45 59 14 28 15 27 -166 48 -236
26 -553 40 -641 27 -42 -6 -108 -14 -147 -18 -38 -3 -178 -24 -310 -46 -132
-22 -251 -40 -265 -40 -14 0 -77 2 -140 5 -115 4 -160 11 -160 26 0 4 -14 8
-30 9 -17 0 -37 8 -46 16 -8 9 -27 16 -40 16 -14 0 -32 7 -41 15 -9 9 -23 13
-34 10 -11 -4 -19 -2 -19 6 0 8 -12 10 -41 5 -35 -6 -41 -4 -46 14 -3 13 -14
20 -28 20 -12 0 -28 7 -35 15 -7 8 -9 15 -4 15 4 0 -3 11 -16 25 -16 17 -34
25 -56 25 -18 0 -45 5 -61 12 -15 6 -50 12 -76 14 -27 1 -57 10 -66 18 -10 9
-27 16 -39 16 -12 0 -22 6 -22 14 0 8 -9 18 -20 21 -11 3 -20 13 -20 21 0 8
-4 12 -10 9 -5 -3 -26 6 -45 21 -39 29 -48 59 -15 49 24 -8 26 7 5 25 -9 7
-15 20 -13 29 4 32 -13 61 -37 61 -13 0 -29 2 -37 4 -7 3 -65 -13 -128 -35z"/>
<path d="M2614 3042 c-16 -11 -24 -41 -13 -48 6 -3 15 -2 21 4 13 13 6 54 -8
44z"/>
<path d="M3964 2655 c-9 -21 3 -45 21 -45 16 0 19 17 9 44 -8 20 -23 21 -30 1z"/>
<path d="M1717 1762 c3 -10 21 -36 40 -59 18 -23 33 -46 33 -52 0 -6 10 -16
23 -22 12 -7 36 -27 54 -46 35 -36 60 -42 70 -15 4 9 16 26 27 38 12 11 32 33
45 49 23 27 23 29 5 42 -10 7 -22 13 -27 13 -15 0 -51 -23 -69 -44 -19 -23
-21 -19 -18 31 1 28 -3 35 -27 43 -15 5 -37 15 -48 22 -11 6 -41 12 -67 14
-40 2 -46 0 -41 -14z"/>
<path d="M3912 1508 c-5 -7 -9 -26 -7 -41 3 -29 15 -51 15 -29 0 7 7 12 15 12
8 0 19 9 25 21 19 35 -23 67 -48 37z"/>
<path d="M4140 1462 c0 -36 27 -63 41 -41 12 19 11 32 -1 24 -5 -3 -7 0 -4 9
3 8 -3 19 -15 26 -19 10 -21 8 -21 -18z"/>
<path d="M1870 503 c-24 -10 -31 -27 -12 -34 19 -7 55 18 46 32 -6 10 -12 10
-34 2z"/>
</g>
</svg>
